<svg xmlns="http://www.w3.org/2000/svg" width="220" height="250" viewBox="0 0 220 250">
  <rect width="220" height="250" fill="#ffffff"/>
  <rect x="10" y="10" width="200" height="200" fill="none" stroke="#1677ff" stroke-width="3" rx="8"/>
  <g fill="#1677ff">
    <rect x="22" y="22" width="44" height="44"/>
    <rect x="34" y="34" width="20" height="20" fill="#fff"/>
    <rect x="154" y="22" width="44" height="44"/>
    <rect x="166" y="34" width="20" height="20" fill="#fff"/>
    <rect x="22" y="154" width="44" height="44"/>
    <rect x="34" y="166" width="20" height="20" fill="#fff"/>
  </g>
  <g fill="#1677ff" opacity="0.85">
    <rect x="90" y="30" width="14" height="14"/>
    <rect x="116" y="30" width="14" height="14"/>
    <rect x="142" y="44" width="14" height="14"/>
    <rect x="78" y="58" width="14" height="14"/>
    <rect x="104" y="72" width="14" height="14"/>
    <rect x="130" y="86" width="14" height="14"/>
    <rect x="90" y="100" width="14" height="14"/>
    <rect x="116" y="114" width="14" height="14"/>
    <rect x="60" y="128" width="14" height="14"/>
    <rect x="142" y="142" width="14" height="14"/>
    <rect x="96" y="156" width="14" height="14"/>
    <rect x="122" y="170" width="14" height="14"/>
    <rect x="70" y="178" width="14" height="14"/>
    <rect x="148" y="178" width="14" height="14"/>
  </g>
  <text x="110" y="234" font-family="sans-serif" font-size="13" fill="#1d4ed8" text-anchor="middle" font-weight="700">支付宝收款码（占位）</text>
</svg>
